<svg xmlns="http://www.w3.org/2000/svg" xmlns:xlink="http://www.w3.org/1999/xlink" width="500" zoomAndPan="magnify" viewBox="0 0 375 374.999991" height="500" preserveAspectRatio="xMidYMid meet" version="1.0"><defs><clipPath id="ea5eaefad6"><path d="M 187 163 L 328.625 163 L 328.625 362 L 187 362 Z M 187 163 " clip-rule="nonzero"/></clipPath><clipPath id="b6f5daa65a"><path d="M 60.125 147 L 186 147 L 186 228 L 60.125 228 Z M 60.125 147 " clip-rule="nonzero"/></clipPath></defs><path stroke-linecap="butt" transform="matrix(1.333397, -0.126513, 0.126513, 1.333397, 375.474529, -207.967707)" fill="none" stroke-linejoin="miter" d="M -80.675478 219.563438 C -81.043682 219.461123 -81.082848 219.349014 -81.474086 217.45163 C -81.627678 216.692952 -81.928836 215.791372 -82.139517 215.449133 C -83.409133 213.39224 -87.075822 211.219236 -91.846646 209.691435 C -94.843207 208.730396 -96.755199 208.472818 -99.951703 208.600177 L -102.727508 208.708861 L -102.824982 207.914494 C -102.877121 207.475974 -102.969151 206.43897 -103.025023 205.607536 C -103.219432 202.808949 -103.757061 201.744315 -105.394126 200.935701 C -105.967838 200.652763 -107.115875 200.309473 -107.946548 200.172068 L -109.458018 199.923196 L -109.394055 198.230126 C -109.3331 196.630517 -109.364679 196.469325 -109.925811 195.405391 C -110.795176 193.761456 -111.700541 192.743959 -113.169274 191.766754 C -113.882966 191.291832 -114.465305 190.852809 -114.465327 190.791286 C -114.46374 190.589298 -113.685809 189.368248 -113.264438 188.910204 C -112.685797 188.276662 -111.84909 187.887321 -111.342624 188.014472 C -110.693191 188.178624 -109.931028 188.883721 -108.011153 191.096056 C -105.122418 194.428588 -104.199063 195.102105 -102.503939 195.113532 C -101.39418 195.119221 -100.806846 194.826331 -99.7977 193.761978 C -98.746127 192.651847 -97.961414 191.451947 -97.075873 189.590747 C -95.876176 187.07384 -95.716519 186.224772 -95.683775 182.267129 C -95.659435 179.169976 -95.614808 178.699623 -95.291073 178.159077 C -94.773067 177.300066 -93.863224 176.911805 -92.610476 177.016018 C -91.479947 177.111564 -90.530759 177.728942 -89.740787 178.881968 C -89.15927 179.73105 -89.228397 180.119981 -90.782669 184.706662 C -91.878831 187.954061 -92.026962 188.558141 -92.04653 189.906806 C -92.075714 191.819962 -91.733995 192.479308 -90.371971 193.129996 C -89.071895 193.7543 -87.904575 193.894351 -86.965549 193.538155 C -85.461695 192.97189 -81.437946 191.505118 -79.315478 190.748536 C -78.118218 190.326024 -76.10182 189.483209 -74.83149 188.87721 L -72.52416 187.777833 L -71.772977 188.320763 C -70.503903 189.240939 -69.672916 191.042358 -69.617477 192.989909 C -69.573275 194.43837 -69.772543 195.0874 -70.294541 195.216576 C -70.525541 195.273756 -71.432127 195.102782 -72.306671 194.841103 C -75.283161 193.946418 -77.391138 194.241507 -80.135965 195.938016 C -80.879466 196.394791 -82.210427 197.17667 -83.095347 197.672759 C -85.561428 199.055888 -86.041418 199.514229 -86.320663 200.759158 C -86.966949 203.618598 -83.482127 208.727332 -76.792145 214.729011 C -76.017267 215.423595 -75.878997 216.251129 -76.374431 217.211887 C -76.686531 217.815057 -77.746032 218.792606 -78.519415 219.193814 C -79.129276 219.508003 -80.210211 219.692539 -80.675478 219.563438 Z M -80.675478 219.563438 " stroke="#000000" stroke-width="0.473" stroke-opacity="1" stroke-miterlimit="4"/><path fill="#155d90" d="M 295.679688 95.003906 C 295.175781 94.914062 295.109375 94.769531 294.347656 92.289062 C 294.046875 91.296875 293.53125 90.132812 293.207031 89.703125 C 291.253906 87.121094 286.089844 84.6875 279.535156 83.253906 C 275.417969 82.351562 272.835938 82.25 268.589844 82.824219 L 264.902344 83.320312 L 264.671875 82.273438 C 264.546875 81.695312 264.292969 80.324219 264.113281 79.222656 C 263.5 75.515625 262.648438 74.164062 260.363281 73.292969 C 259.5625 72.988281 257.988281 72.675781 256.863281 72.597656 L 254.816406 72.457031 L 254.6875 70.191406 C 254.566406 68.050781 254.503906 67.839844 253.621094 66.492188 C 252.253906 64.410156 250.917969 63.167969 248.835938 62.050781 C 247.824219 61.507812 246.992188 60.996094 246.984375 60.914062 C 246.960938 60.644531 247.84375 58.917969 248.347656 58.253906 C 249.039062 57.335938 250.105469 56.710938 250.796875 56.816406 C 251.683594 56.953125 252.789062 57.796875 255.628906 60.503906 C 259.902344 64.582031 261.21875 65.363281 263.480469 65.164062 C 264.960938 65.03125 265.707031 64.566406 266.917969 63.019531 C 268.179688 61.40625 269.074219 59.707031 270.019531 57.113281 C 271.300781 53.605469 271.40625 52.453125 270.949219 47.171875 C 270.589844 43.039062 270.589844 42.40625 270.953125 41.644531 C 271.535156 40.433594 272.699219 39.800781 274.382812 39.78125 C 275.902344 39.765625 277.246094 40.46875 278.445312 41.90625 C 279.328125 42.964844 279.285156 43.492188 277.792969 49.804688 C 276.742188 54.273438 276.621094 55.097656 276.765625 56.898438 C 276.96875 59.453125 277.507812 60.289062 279.40625 60.984375 C 281.21875 61.652344 282.792969 61.691406 284 61.097656 C 285.933594 60.152344 291.113281 57.6875 293.847656 56.410156 C 295.390625 55.695312 297.972656 54.316406 299.589844 53.347656 L 302.527344 51.589844 L 303.597656 52.21875 C 305.40625 53.285156 306.742188 55.582031 307.0625 58.171875 C 307.304688 60.097656 307.121094 60.988281 306.441406 61.226562 C 306.140625 61.332031 304.910156 61.21875 303.710938 60.980469 C 299.628906 60.164062 296.855469 60.824219 293.410156 63.433594 C 292.476562 64.136719 290.800781 65.347656 289.683594 66.121094 C 286.570312 68.277344 285.988281 68.949219 285.773438 70.644531 C 285.273438 74.539062 290.566406 80.910156 300.246094 88.066406 C 301.367188 88.894531 301.65625 89.980469 301.117188 91.324219 C 300.777344 92.167969 299.488281 93.605469 298.507812 94.238281 C 297.734375 94.734375 296.316406 95.117188 295.679688 95.003906 Z M 295.679688 95.003906 " fill-opacity="1" fill-rule="nonzero"/><path stroke-linecap="butt" transform="matrix(1.333397, -0.126513, 0.126513, 1.333397, 375.474529, -207.967707)" fill="none" stroke-linejoin="miter" d="M -169.471712 282.938753 C -170.685197 282.050217 -172.006445 279.425952 -173.710076 274.53309 C -174.448687 272.406468 -176.857068 264.968342 -177.702497 262.20759 L -178.030403 261.124771 L -176.790229 258.520888 C -173.416606 251.432149 -172.537465 247.50794 -172.740862 240.419641 C -172.887442 235.264376 -173.513055 230.927877 -174.961832 225.016277 C -176.22508 219.866385 -177.63814 216.820342 -180.307191 213.488147 C -182.195596 211.129391 -182.171796 211.187311 -182.354142 208.879103 C -182.663003 204.971076 -183.342016 203.266104 -186.460876 198.561216 C -189.551932 193.902909 -191.781036 189.083232 -192.935114 184.573551 C -193.605744 181.946567 -193.574213 181.583365 -192.427801 178.516506 C -191.669651 176.485023 -191.573716 176.060553 -191.575171 174.686456 C -191.579027 172.781884 -192.128732 170.022825 -192.7484 168.80393 L -193.212425 167.889827 L -192.309891 165.602525 C -191.812489 164.34314 -191.105945 162.207157 -190.740468 160.856156 C -190.009791 158.15706 -189.47401 156.740191 -188.318202 154.438836 C -186.155377 150.138399 -184.023131 148.105461 -181.667301 148.100477 C -180.15827 148.097177 -174.8846 150.068176 -168.51714 153.01596 C -165.228114 154.537926 -164.113261 155.261838 -163.362432 156.364278 C -162.380324 157.807982 -160.589728 159.592055 -159.192628 160.521449 C -157.166883 161.864965 -155.351949 162.497105 -153.197513 162.607772 L -151.389685 162.697272 L -150.681778 165.178386 C -150.292665 166.54239 -149.468207 170.203453 -148.852292 173.31448 C -147.284603 181.214808 -146.883006 182.69425 -142.813396 195.533885 C -138.883853 207.935446 -138.721446 208.601215 -139.046201 210.943337 C -139.429846 213.690008 -140.444817 217.038856 -141.903311 220.36906 C -142.225179 221.106063 -143.910222 224.570037 -145.645025 228.064445 C -147.382732 231.558577 -149.025431 235.132033 -149.301352 236.002296 C -149.854846 237.760241 -150.426531 240.852335 -150.787771 244.011268 C -151.158102 247.266014 -151.110266 255.839482 -150.705267 258.33287 C -150.409037 260.150931 -150.403821 260.435592 -150.65442 260.977218 C -150.806241 261.311429 -151.950781 263.030874 -153.193739 264.799571 C -154.436422 266.565365 -156.246023 269.273416 -157.212693 270.816386 C -162.689533 279.539469 -164.46682 281.752563 -166.876044 282.845202 C -168.400454 283.535488 -168.641564 283.544836 -169.471712 282.938753 Z M -169.471712 282.938753 " stroke="#000000" stroke-width="0.473" stroke-opacity="1" stroke-miterlimit="4"/><path fill="#155d90" d="M 185.296875 190.742188 C 183.566406 189.710938 181.472656 186.378906 178.582031 180.070312 C 177.328125 177.328125 173.175781 167.714844 171.699219 164.140625 L 171.125 162.738281 L 172.449219 159.109375 C 176.050781 149.230469 176.726562 143.886719 175.558594 134.460938 C 174.710938 127.605469 173.328125 121.902344 170.648438 114.203125 C 168.3125 107.496094 166.042969 103.613281 162.0625 99.507812 C 159.246094 96.601562 159.285156 96.675781 158.75 93.621094 C 157.84375 88.449219 156.722656 86.261719 151.96875 80.382812 C 147.257812 74.5625 143.675781 68.417969 141.566406 62.550781 C 140.339844 59.132812 140.335938 58.644531 141.476562 54.410156 C 142.230469 51.605469 142.304688 51.027344 142.128906 49.195312 C 141.882812 46.65625 140.800781 43.046875 139.820312 41.5 L 139.085938 40.339844 L 140 37.175781 C 140.503906 35.433594 141.175781 32.496094 141.492188 30.648438 C 142.125 26.957031 142.660156 25 143.910156 21.785156 C 146.25 15.777344 148.835938 12.796875 151.976562 12.492188 C 153.988281 12.296875 161.269531 14.257812 170.132812 17.382812 C 174.710938 18.996094 176.289062 19.820312 177.429688 21.195312 C 178.921875 22.996094 181.535156 25.148438 183.515625 26.210938 C 186.386719 27.746094 188.886719 28.359375 191.773438 28.234375 L 194.195312 28.125 L 195.453125 31.34375 C 196.144531 33.113281 197.707031 37.890625 198.921875 41.960938 C 202.011719 52.296875 202.734375 54.21875 209.785156 70.824219 C 216.59375 86.863281 216.894531 87.730469 216.757812 90.894531 C 216.59375 94.605469 215.664062 99.199219 214.140625 103.824219 C 213.804688 104.847656 211.996094 109.679688 210.125 114.558594 C 208.25 119.4375 206.511719 124.410156 206.253906 125.605469 C 205.738281 128.019531 205.367188 132.214844 205.285156 136.472656 C 205.203125 140.859375 206.351562 152.285156 207.207031 155.558594 C 207.832031 157.945312 207.875 158.324219 207.609375 159.078125 C 207.449219 159.542969 206.140625 161.980469 204.707031 164.496094 C 203.273438 167.007812 201.203125 170.847656 200.109375 173.027344 C 193.910156 185.351562 191.820312 188.527344 188.746094 190.289062 C 186.800781 191.402344 186.480469 191.445312 185.296875 190.742188 Z M 185.296875 190.742188 " fill-opacity="1" fill-rule="nonzero"/><g clip-path="url(#ea5eaefad6)"><path stroke-linecap="butt" transform="matrix(1.333397, -0.126513, 0.126513, 1.333397, 375.474529, -207.967707)" fill="none" stroke-linejoin="miter" d="M -87.213379 415.773627 C -88.248737 415.045539 -88.679434 413.378775 -88.954858 409.0257 C -89.402417 401.917164 -90.407595 399.358043 -94.271903 395.47008 C -96.724418 393.005069 -101.370076 389.664036 -108.135443 385.50668 C -112.962909 382.538026 -118.911757 378.759885 -123.348641 375.842938 C -126.222208 373.956112 -126.997891 373.33176 -129.249031 371.090925 C -131.671939 368.684384 -131.899192 368.393304 -132.692667 366.721415 C -133.161419 365.733626 -133.769075 364.079367 -134.046223 363.048236 C -134.467488 361.467324 -134.527681 360.928435 -134.433429 359.657165 C -134.119863 355.395128 -131.239088 347.20206 -127.129157 338.867815 C -125.300281 335.153828 -124.353151 333.477174 -120.577323 327.243941 C -117.406134 322.010906 -113.916139 315.208586 -112.928925 312.33755 C -112.491392 311.060767 -112.46875 309.803209 -112.88089 309.392052 C -113.416119 308.857894 -114.758072 308.27356 -123.444916 304.792252 C -133.576984 300.734388 -139.913626 298.141074 -147.06791 295.118637 C -149.977605 293.890462 -153.592067 292.402068 -155.097438 291.811017 C -158.136662 290.620355 -160.685953 289.3297 -162.731619 287.949139 C -164.119183 287.011862 -165.494035 285.662723 -165.491835 285.238147 C -165.493956 285.106117 -164.80698 284.318798 -163.966695 283.490365 C -163.129314 282.661655 -162.034911 281.470632 -161.536315 280.847072 C -160.43935 279.47466 -156.084583 272.666503 -154.22402 269.421321 C -153.483028 268.126456 -152.794084 267.040511 -152.694139 267.00605 C -152.343294 266.889932 -140.955061 275.616569 -137.712284 278.490528 C -136.269022 279.767059 -130.985686 284.044531 -128.195255 286.190057 C -125.869203 287.980991 -121.71249 290.701441 -116.999275 293.515707 C -110.045886 297.667466 -107.094941 299.819433 -104.217929 302.84325 C -100.789496 306.446705 -100.334903 309.220176 -102.076031 315.930628 C -103.666802 322.075295 -106.546102 329.357413 -110.545136 337.356493 C -112.812121 341.8902 -114.353357 344.641291 -117.367468 349.546472 C -120.096393 353.977758 -121.50155 356.838436 -122.016745 358.995504 C -122.522276 361.112476 -122.502197 361.981527 -121.915503 363.393573 C -120.77007 366.141775 -119.152088 368.10868 -115.513704 371.166652 C -111.680048 374.389629 -105.594132 377.556782 -100.902084 378.772435 C -98.362972 379.429341 -95.217012 379.464171 -93.632711 378.852807 C -92.282716 378.333464 -89.990778 376.717026 -88.4245 375.184074 C -87.35203 374.131587 -87.192854 373.874242 -86.781898 372.50705 C -86.530158 371.675507 -86.148831 370.188322 -85.932124 369.201119 C -85.213957 365.923714 -84.331096 365.078813 -83.093784 366.48814 C -82.277069 367.421058 -81.541261 369.052321 -81.431364 370.178906 C -81.35254 371.015447 -81.395221 371.12565 -82.003468 371.700722 C -82.366815 372.04123 -83.148016 372.617469 -83.741961 372.980041 C -85.701135 374.176902 -89.769866 378.618756 -90.84597 380.728464 C -91.551675 382.114563 -91.33956 383.769377 -90.258989 385.286873 C -89.741942 386.012656 -89.139493 386.239731 -87.738439 386.232044 C -86.21752 386.226942 -84.769998 385.482489 -82.715103 383.64728 C -80.148005 381.353858 -78.883333 380.776617 -77.531865 381.291545 C -76.878532 381.538095 -76.292118 382.551696 -76.290562 383.430708 C -76.290165 384.939464 -77.200533 385.796402 -79.327519 386.291827 C -81.726979 386.849285 -84.666762 388.099582 -86.062189 389.15951 C -86.841589 389.747639 -87.031509 390.637779 -86.584756 391.579539 C -85.913588 392.99667 -82.034561 395.895843 -78.455255 397.662137 C -75.628592 399.055278 -74.811409 400.137647 -75.024417 402.197417 C -75.145246 403.378279 -76.143553 405.378186 -76.879975 405.914731 C -77.333602 406.249603 -77.419179 406.256131 -77.927214 405.991142 C -78.580718 405.65376 -79.286111 404.412083 -79.880566 402.556939 C -80.599998 400.320813 -81.310328 399.19292 -83.09537 397.473824 C -85.454635 395.199293 -86.46155 394.75807 -87.904284 395.35943 C -88.935223 395.788933 -89.205573 396.384347 -89.102008 397.979059 C -89.032104 399.002244 -88.868743 399.62709 -88.436678 400.47664 C -87.779795 401.766446 -86.143986 404.101236 -84.803485 405.658042 C -83.576536 407.083963 -83.064063 408.166717 -82.951303 409.571881 C -82.779535 411.682806 -83.991391 414.605766 -85.387032 415.451817 C -86.341463 416.032127 -86.743616 416.102364 -87.213379 415.773627 Z M -87.213379 415.773627 " stroke="#000000" stroke-width="0.473" stroke-opacity="1" stroke-miterlimit="4"/></g><path fill="#155d90" d="M 311.785156 357.457031 C 310.3125 356.617188 309.527344 354.449219 308.609375 348.679688 C 307.113281 339.257812 305.449219 335.972656 299.804688 331.277344 C 296.222656 328.300781 289.605469 324.433594 280.058594 319.746094 C 273.246094 316.398438 264.835938 312.113281 258.550781 308.785156 C 254.480469 306.632812 253.367188 305.898438 250.082031 303.195312 C 246.546875 300.292969 246.207031 299.933594 244.9375 297.804688 C 244.1875 296.546875 243.167969 294.417969 242.667969 293.078125 C 241.90625 291.023438 241.757812 290.3125 241.722656 288.605469 C 241.601562 282.882812 244.40625 271.59375 248.832031 259.960938 C 250.800781 254.777344 251.851562 252.421875 256.097656 243.632812 C 259.664062 236.253906 263.457031 226.742188 264.410156 222.789062 C 264.832031 221.03125 264.703125 219.351562 264.101562 218.855469 C 263.320312 218.210938 261.457031 217.601562 249.433594 214.058594 C 235.410156 209.929688 226.632812 207.273438 216.710938 204.148438 C 212.675781 202.878906 207.667969 201.351562 205.585938 200.753906 C 201.382812 199.550781 197.820312 198.152344 194.917969 196.570312 C 192.949219 195.496094 190.945312 193.871094 190.894531 193.304688 C 190.875 193.128906 191.691406 191.992188 192.707031 190.78125 C 193.71875 189.570312 195.027344 187.84375 195.613281 186.949219 C 196.902344 184.980469 201.847656 175.351562 203.917969 170.789062 C 204.742188 168.96875 205.523438 167.433594 205.652344 167.375 C 206.105469 167.175781 222.394531 177.371094 227.082031 180.792969 C 229.167969 182.3125 236.753906 187.347656 240.746094 189.855469 C 244.074219 191.949219 249.960938 195.050781 256.601562 198.207031 C 266.398438 202.863281 270.605469 205.359375 274.824219 209.027344 C 279.851562 213.398438 280.808594 217.039062 279.335938 226.207031 C 277.992188 234.601562 275.074219 244.675781 270.753906 255.847656 C 268.304688 262.179688 266.597656 266.042969 263.199219 272.964844 C 260.121094 279.21875 258.609375 283.210938 258.195312 286.152344 C 257.789062 289.039062 257.925781 290.195312 258.886719 292.003906 C 260.761719 295.523438 263.167969 297.941406 268.40625 301.558594 C 273.925781 305.371094 282.441406 308.824219 288.851562 309.851562 C 292.320312 310.40625 296.519531 310.054688 298.554688 309.039062 C 300.289062 308.175781 303.140625 305.730469 305.035156 303.488281 C 306.332031 301.949219 306.511719 301.585938 306.886719 299.710938 C 307.117188 298.570312 307.4375 296.539062 307.601562 295.195312 C 308.144531 290.734375 309.214844 289.496094 311.042969 291.21875 C 312.25 292.359375 313.4375 294.441406 313.726562 295.929688 C 313.9375 297.035156 313.894531 297.1875 313.15625 298.03125 C 312.714844 298.53125 311.746094 299.398438 311 299.957031 C 308.539062 301.800781 303.675781 308.238281 302.507812 311.1875 C 301.742188 313.125 302.234375 315.304688 303.867188 317.191406 C 304.648438 318.09375 305.480469 318.320312 307.347656 318.132812 C 309.375 317.933594 311.210938 316.757812 313.71875 314.050781 C 316.851562 310.667969 318.464844 309.738281 320.332031 310.253906 C 321.234375 310.5 322.144531 311.777344 322.257812 312.949219 C 322.449219 314.960938 321.34375 316.21875 318.570312 317.148438 C 315.441406 318.195312 311.679688 320.234375 309.953125 321.824219 C 308.988281 322.707031 308.847656 323.917969 309.5625 325.117188 C 310.636719 326.921875 316.175781 330.296875 321.171875 332.199219 C 325.117188 333.699219 326.34375 335.039062 326.320312 337.8125 C 326.308594 339.402344 325.230469 342.195312 324.316406 343.003906 C 323.753906 343.507812 323.640625 343.527344 322.929688 343.238281 C 322.015625 342.871094 320.917969 341.304688 319.890625 338.90625 C 318.648438 336.015625 317.558594 334.601562 314.960938 332.535156 C 311.527344 329.800781 310.128906 329.339844 308.28125 330.324219 C 306.960938 331.027344 306.675781 331.855469 307.015625 333.96875 C 307.238281 335.324219 307.535156 336.136719 308.21875 337.214844 C 309.257812 338.851562 311.734375 341.757812 313.71875 343.664062 C 315.535156 345.410156 316.355469 346.789062 316.683594 348.648438 C 317.179688 351.441406 315.933594 355.492188 314.179688 356.796875 C 312.980469 357.691406 312.453125 357.835938 311.785156 357.457031 Z M 311.785156 357.457031 " fill-opacity="1" fill-rule="nonzero"/><g clip-path="url(#b6f5daa65a)"><path stroke-linecap="butt" transform="matrix(1.333397, -0.126513, 0.126513, 1.333397, 375.474529, -207.967707)" fill="none" stroke-linejoin="miter" d="M -186.374922 306.370897 C -191.192389 305.087683 -197.722375 302.309041 -202.816933 299.376566 C -212.133773 294.013305 -218.299515 289.52614 -225.392843 282.958873 C -229.012114 279.606831 -230.662025 278.439593 -234.378089 276.601731 C -240.39163 273.628937 -241.602672 273.393921 -250.229057 273.536342 L -256.440591 273.638364 L -257.698035 272.379464 C -258.391066 271.686786 -259.140177 270.751493 -259.361264 270.302802 C -259.737444 269.543512 -259.746749 269.425447 -259.495113 268.68764 C -259.183398 267.77976 -258.460776 266.925514 -257.783013 266.66757 C -256.403158 266.142272 -253.53043 266.833762 -250.56794 268.400915 C -248.456557 269.521121 -247.147032 269.891451 -245.307161 269.890245 C -244.047399 269.88966 -243.881927 269.843839 -243.277811 269.312319 C -242.405568 268.548438 -241.770056 266.883231 -241.933443 265.795514 C -242.183301 264.137119 -243.799311 262.272936 -247.867339 258.957413 C -250.850457 256.527015 -252.995299 253.845115 -252.995206 252.547334 C -252.994716 250.813087 -249.094331 249.226218 -247.574671 250.345943 C -246.755862 250.94802 -245.896055 252.538316 -245.133875 254.848807 C -244.094613 258.005861 -243.534775 258.929054 -241.181951 261.3641 C -238.207727 264.444013 -237.431707 264.848681 -235.330831 264.4123 C -234.449256 264.229355 -234.195199 264.083546 -233.890664 263.590981 C -232.9106 261.999479 -232.983455 260.451624 -234.209178 256.635307 C -234.878785 254.553316 -234.879699 254.315936 -234.222627 253.411528 C -233.71742 252.718286 -233.438036 252.645189 -232.621115 252.989288 C -230.795075 253.751382 -230.242121 255.148509 -229.374786 261.198292 C -228.940981 264.221732 -228.502445 265.774987 -227.555724 267.622541 C -226.518105 269.654492 -226.12328 269.970261 -223.926517 270.530235 C -222.54483 270.881046 -221.49788 271.548713 -220.293651 272.843578 C -219.163831 274.058145 -218.671494 274.889977 -218.341594 276.137041 C -217.953137 277.600588 -217.727598 278.125869 -217.089093 279.053597 C -215.441097 281.445204 -211.113988 284.747225 -204.331245 288.783189 C -201.386387 290.53616 -200.11513 291.371587 -197.93334 292.984778 C -195.762887 294.593965 -194.852996 294.730097 -195.844917 293.29718 C -196.501817 292.3472 -198.628001 290.425823 -202.439213 287.336805 C -203.997911 286.072758 -206.082153 284.295979 -207.071123 283.387731 C -208.057189 282.479758 -210.310467 280.446717 -212.079422 278.866836 C -217.578105 273.956658 -220.029077 271.166613 -222.678726 266.796269 C -224.259331 264.18841 -225.594819 259.614645 -225.589592 256.811563 C -225.585345 253.586533 -224.082194 250.650196 -221.785018 249.379942 C -220.857522 248.867385 -220.627623 248.821818 -219.071438 248.846428 C -215.967779 248.894821 -212.737057 250.135878 -208.110349 253.059118 C -205.017351 255.010706 -200.771677 257.133181 -197.979584 258.118763 C -195.048805 259.155589 -192.167217 259.877215 -186.47093 261.006518 C -183.819604 261.530524 -181.212507 262.088418 -180.673404 262.242102 C -179.526893 262.570599 -179.583479 262.456837 -178.247545 267.118531 C -177.181955 270.831768 -175.319144 275.868632 -173.58685 279.718365 C -171.849576 283.577358 -171.896371 283.391286 -172.710874 283.237838 C -173.827756 283.029334 -177.194156 281.643574 -179.384631 280.492427 C -180.525846 279.891984 -183.714889 278.057254 -186.47113 276.415924 C -195.837817 270.837005 -206.231717 265.277807 -207.76669 265.029634 C -208.424536 264.923275 -208.433797 264.928255 -208.194738 265.372792 C -207.936033 265.857277 -201.027417 272.796648 -190.619969 283.029762 C -187.130905 286.457338 -183.73528 289.943427 -183.075795 290.773541 C -180.421536 294.107262 -178.536573 299.620815 -178.998077 302.694067 C -179.116282 303.476759 -179.306548 303.783887 -180.391712 304.908407 C -181.08369 305.624942 -181.880192 306.331559 -182.160655 306.477792 C -182.866307 306.844413 -184.783341 306.794355 -186.374922 306.370897 Z M -186.374922 306.370897 " stroke="#000000" stroke-width="0.473" stroke-opacity="1" stroke-miterlimit="4"/></g><path fill="#155d90" d="M 165.722656 224.125 C 159.136719 223.023438 150.078125 220.144531 142.914062 216.878906 C 129.8125 210.90625 121.023438 205.703125 110.734375 197.84375 C 105.484375 193.832031 103.136719 192.484375 97.949219 190.503906 C 89.554688 187.300781 87.910156 187.140625 76.425781 188.421875 L 68.15625 189.34375 L 66.320312 187.824219 C 65.308594 186.988281 64.191406 185.835938 63.839844 185.265625 C 63.242188 184.300781 63.214844 184.144531 63.457031 183.128906 C 63.757812 181.878906 64.613281 180.648438 65.484375 180.21875 C 67.257812 179.34375 71.175781 179.902344 75.324219 181.617188 C 78.28125 182.84375 80.074219 183.171875 82.527344 182.9375 C 84.207031 182.777344 84.421875 182.695312 85.160156 181.910156 C 86.226562 180.78125 86.863281 178.480469 86.507812 177.050781 C 85.964844 174.871094 83.574219 172.589844 77.730469 168.683594 C 73.445312 165.820312 70.246094 162.515625 70.082031 160.785156 C 69.863281 158.472656 74.863281 155.863281 77.03125 157.164062 C 78.199219 157.863281 79.546875 159.875 80.855469 162.859375 C 82.640625 166.9375 83.503906 168.097656 86.949219 171.046875 C 91.304688 174.777344 92.390625 175.21875 95.136719 174.371094 C 96.289062 174.015625 96.609375 173.789062 96.953125 173.09375 C 98.058594 170.847656 97.765625 168.792969 95.648438 163.859375 C 94.492188 161.167969 94.460938 160.851562 95.222656 159.5625 C 95.808594 158.574219 96.171875 158.441406 97.304688 158.796875 C 99.835938 159.582031 100.75 161.375 102.671875 169.332031 C 103.632812 173.308594 104.414062 175.324219 105.910156 177.667969 C 107.550781 180.246094 108.117188 180.617188 111.117188 181.085938 C 113.003906 181.378906 114.484375 182.136719 116.253906 183.710938 C 117.914062 185.1875 118.675781 186.234375 119.273438 187.855469 C 119.976562 189.757812 120.34375 190.429688 121.3125 191.585938 C 123.8125 194.566406 130 198.421875 139.554688 202.945312 C 143.703125 204.910156 145.503906 205.863281 148.617188 207.738281 C 151.714844 209.609375 152.945312 209.675781 151.441406 207.890625 C 150.445312 206.707031 147.367188 204.414062 141.894531 200.777344 C 139.65625 199.289062 136.652344 197.183594 135.21875 196.097656 C 133.789062 195.011719 130.527344 192.585938 127.96875 190.703125 C 120.015625 184.851562 116.394531 181.441406 112.308594 175.949219 C 109.871094 172.671875 107.511719 166.742188 107.164062 163.003906 C 106.761719 158.703125 108.394531 154.597656 111.296875 152.613281 C 112.46875 151.8125 112.769531 151.722656 114.847656 151.558594 C 118.992188 151.230469 123.457031 152.476562 129.996094 155.789062 C 134.367188 158 140.296875 160.292969 144.144531 161.253906 C 148.183594 162.265625 152.117188 162.863281 159.855469 163.648438 C 163.457031 164.011719 167.003906 164.425781 167.742188 164.5625 C 169.3125 164.855469 169.222656 164.710938 171.59375 170.757812 C 173.484375 175.574219 176.605469 182.054688 179.402344 186.96875 C 182.207031 191.894531 182.121094 191.652344 181.015625 191.550781 C 179.5 191.414062 174.835938 189.992188 171.769531 188.734375 C 170.171875 188.078125 165.6875 186.035156 161.804688 184.195312 C 148.609375 177.941406 134.046875 171.84375 131.96875 171.707031 C 131.078125 171.648438 131.066406 171.65625 131.441406 172.21875 C 131.847656 172.832031 141.9375 181.210938 157.109375 193.539062 C 162.195312 197.667969 167.164062 201.886719 168.148438 202.910156 C 172.109375 207.019531 175.320312 214.132812 175.09375 218.289062 C 175.035156 219.347656 174.820312 219.78125 173.515625 221.417969 C 172.683594 222.460938 171.710938 223.503906 171.355469 223.734375 C 170.460938 224.3125 167.898438 224.488281 165.722656 224.125 Z M 165.722656 224.125 " fill-opacity="1" fill-rule="nonzero"/><path stroke-linecap="butt" transform="matrix(1.333397, -0.126513, 0.126513, 1.333397, 375.474529, -207.967707)" fill="none" stroke-linejoin="miter" d="M -126.023472 217.91206 C -127.499511 217.382384 -129.969081 215.560256 -134.469489 211.676389 L -136.294435 210.099985 L -137.318398 206.812553 C -139.219749 200.699817 -140.182508 197.292221 -140.129297 196.854908 C -140.074561 196.432387 -140.017594 196.449511 -138.467164 197.399312 C -133.090442 200.692526 -131.70182 201.495145 -129.491319 202.589602 C -126.298358 204.166903 -124.669308 204.596845 -121.836641 204.59902 C -118.447643 204.604177 -115.517987 203.645873 -112.276724 201.472077 C -111.084576 200.671169 -110.954496 200.627849 -110.597988 200.88432 C -109.619596 201.595285 -108.657504 201.953157 -107.094747 202.186389 C -105.292109 202.454098 -104.96771 202.616707 -104.519326 203.479523 C -104.232116 204.034092 -103.760742 208.514153 -103.939753 208.980544 C -103.993899 209.118954 -104.575574 209.383086 -105.234836 209.569546 C -109.779039 210.84046 -114.065087 212.601665 -118.811795 215.142367 C -123.147831 217.461303 -124.607115 218.175344 -124.998651 218.164561 C -125.182944 218.161723 -125.643781 218.04769 -126.023472 217.91206 Z M -126.023472 217.91206 " stroke="#000000" stroke-width="0.473" stroke-opacity="1" stroke-miterlimit="4"/><path fill="#155d90" d="M 235.003906 98.539062 C 232.96875 98.019531 229.445312 95.902344 222.953125 91.292969 L 220.320312 89.421875 L 218.539062 85.167969 C 215.230469 77.257812 213.515625 72.835938 213.53125 72.246094 C 213.550781 71.675781 213.628906 71.691406 215.816406 72.761719 C 223.402344 76.472656 225.355469 77.367188 228.441406 78.546875 C 232.898438 80.246094 235.125 80.613281 238.902344 80.257812 C 243.421875 79.835938 247.207031 78.1875 251.253906 74.878906 C 252.742188 73.660156 252.910156 73.585938 253.417969 73.882812 C 254.8125 74.707031 256.140625 75.0625 258.253906 75.175781 C 260.691406 75.304688 261.144531 75.480469 261.851562 76.574219 C 262.304688 77.277344 263.5 83.191406 263.320312 83.835938 C 263.265625 84.027344 262.523438 84.453125 261.667969 84.785156 C 255.769531 87.054688 250.277344 89.945312 244.269531 93.933594 C 238.78125 97.574219 236.925781 98.710938 236.402344 98.746094 C 236.15625 98.765625 235.527344 98.671875 235.003906 98.539062 Z M 235.003906 98.539062 " fill-opacity="1" fill-rule="nonzero"/><path stroke-linecap="butt" transform="matrix(1.333397, -0.126513, 0.126513, 1.333397, 375.474529, -207.967707)" fill="none" stroke-linejoin="miter" d="M -205.214301 217.780894 C -207.959388 216.793912 -209.659584 214.180565 -212.656237 206.335078 C -214.451186 201.632762 -215.572142 198.90446 -216.751927 196.363926 C -217.280317 195.232789 -217.701577 194.053225 -217.692976 193.746439 C -217.677703 193.153189 -217.112713 192.231256 -216.069999 191.09099 C -215.54097 190.51719 -215.30073 190.393507 -214.700296 190.394814 C -213.953315 190.395379 -209.950525 191.032964 -209.831442 191.167304 C -209.794375 191.208905 -208.895298 192.817574 -207.829791 194.740849 C -204.451347 200.847254 -201.076583 205.541268 -199.438946 206.405598 C -199.042915 206.616016 -198.416456 206.713539 -197.527907 206.704099 C -195.908971 206.68486 -194.183907 206.133725 -190.739485 204.535818 C -189.378746 203.903242 -187.740702 203.188584 -187.096529 202.94503 C -185.987198 202.522965 -185.910332 202.51561 -185.532377 202.823919 C -185.023874 203.238359 -184.659894 204.682006 -184.407631 207.272225 C -184.149688 209.895209 -184.287395 210.265914 -185.928763 211.355239 C -189.61151 213.797679 -200.074821 217.955066 -202.913103 218.104696 C -203.802054 218.149252 -204.438049 218.059613 -205.214301 217.780894 Z M -205.214301 217.780894 " stroke="#000000" stroke-width="0.473" stroke-opacity="1" stroke-miterlimit="4"/><path fill="#155d90" d="M 129.394531 108.382812 C 125.609375 107.414062 123.011719 104.144531 118.023438 94.0625 C 115.035156 88.019531 113.195312 84.523438 111.300781 81.285156 C 110.453125 79.84375 109.742188 78.324219 109.714844 77.914062 C 109.660156 77.121094 110.296875 75.820312 111.542969 74.167969 C 112.175781 73.335938 112.480469 73.140625 113.28125 73.066406 C 114.277344 72.972656 119.695312 73.316406 119.871094 73.480469 C 119.925781 73.53125 121.328125 75.5625 122.992188 77.992188 C 128.269531 85.707031 133.363281 91.539062 135.65625 92.484375 C 136.210938 92.714844 137.058594 92.765625 138.242188 92.640625 C 140.398438 92.410156 142.628906 91.457031 147.019531 88.890625 C 148.753906 87.875 150.847656 86.714844 151.675781 86.308594 C 153.101562 85.605469 153.203125 85.585938 153.746094 85.949219 C 154.476562 86.4375 155.144531 88.316406 155.808594 91.738281 C 156.484375 95.203125 156.347656 95.714844 154.296875 97.375 C 149.695312 101.097656 136.269531 107.964844 132.503906 108.523438 C 131.324219 108.695312 130.464844 108.65625 129.394531 108.382812 Z M 129.394531 108.382812 " fill-opacity="1" fill-rule="nonzero"/><path stroke-linecap="butt" transform="matrix(1.333397, -0.126513, 0.126513, 1.333397, 375.474529, -207.967707)" fill="none" stroke-linejoin="miter" d="M -220.215148 191.737688 C -222.678809 189.421026 -226.770385 187.928378 -230.694564 187.913456 C -233.403359 187.902528 -234.764885 188.265511 -239.534316 190.273807 C -243.644656 192.004811 -245.125584 192.113313 -246.39356 190.780174 C -247.482986 189.63389 -248.215847 186.180727 -247.594359 185.126466 C -246.680225 183.58144 -245.355255 183.449353 -240.942551 184.4598 C -235.996424 185.591166 -233.629597 185.408524 -231.740406 183.745084 C -229.915069 182.137107 -229.549641 180.261713 -230.657365 178.196744 C -231.625915 176.393992 -233.630247 173.836745 -235.789981 171.651455 C -237.626227 169.792741 -237.93558 169.564181 -239.785441 168.682645 C -242.540599 167.369527 -243.001402 166.575842 -242.243295 164.421314 C -241.729238 162.955511 -241.158122 162.154271 -240.285367 161.662886 C -238.549393 160.688001 -237.121877 162.006981 -235.711014 165.878948 C -234.97465 167.905753 -230.245027 175.271163 -228.564359 177.009652 C -226.067422 179.59313 -223.511651 180.444967 -221.436573 179.385075 C -219.709139 178.500195 -219.542253 177.760206 -219.543299 170.916681 L -219.543437 165.854408 L -218.759227 165.184709 C -217.764108 164.329952 -216.929709 164.057574 -215.639217 164.165368 C -213.854595 164.314187 -212.829892 165.401598 -212.839644 167.140824 C -212.84525 168.095325 -212.992196 168.532533 -213.933029 170.420712 C -215.309322 173.193312 -215.755412 174.899928 -215.886648 177.919559 C -216.009411 180.664616 -215.682153 182.649675 -214.918587 183.803126 C -214.283112 184.762791 -213.428215 184.984522 -210.815275 184.863315 C -208.487824 184.756034 -207.430606 184.35832 -204.937676 182.661347 C -203.174133 181.457643 -201.941079 180.997514 -201.286898 181.296876 C -200.430282 181.685755 -200.185024 183.238249 -200.819651 184.276616 C -201.725372 185.763849 -203.56178 186.562221 -206.649987 186.814108 C -207.907777 186.917414 -209.078293 187.119817 -209.458701 187.300511 C -210.136718 187.622881 -210.660701 188.390509 -210.660461 189.067258 C -210.661642 189.635478 -210.96758 189.67969 -212.650925 189.358849 C -213.479669 189.201119 -214.597907 189.068655 -215.13419 189.070504 C -216.306022 189.070644 -216.912385 189.502347 -217.860957 191.00895 C -219.119872 193.007568 -218.926615 192.946806 -220.215148 191.737688 Z M -220.215148 191.737688 " stroke="#000000" stroke-width="0.473" stroke-opacity="1" stroke-miterlimit="4"/><path fill="#155d90" d="M 106.097656 75.554688 C 102.519531 72.777344 96.875 71.304688 91.640625 71.78125 C 88.027344 72.109375 86.257812 72.765625 80.152344 76.046875 C 74.890625 78.875 72.929688 79.207031 71.070312 77.589844 C 69.472656 76.199219 68.058594 71.6875 68.753906 70.203125 C 69.777344 68.027344 71.527344 67.683594 77.539062 68.472656 C 84.277344 69.355469 87.410156 68.8125 89.71875 66.355469 C 91.949219 63.980469 92.199219 61.433594 90.460938 58.820312 C 88.941406 56.539062 85.945312 53.382812 82.789062 50.742188 C 80.105469 48.496094 79.664062 48.230469 77.085938 47.289062 C 73.246094 45.886719 72.53125 44.886719 73.269531 41.917969 C 73.769531 39.898438 74.429688 38.757812 75.53125 37.992188 C 77.722656 36.472656 79.792969 38.050781 82.164062 43.035156 C 83.402344 45.644531 90.640625 54.867188 93.101562 56.972656 C 96.757812 60.101562 100.273438 60.914062 102.90625 59.238281 C 105.097656 57.839844 105.226562 56.832031 104.359375 47.707031 L 103.71875 40.957031 L 104.679688 39.964844 C 105.898438 38.699219 106.976562 38.230469 108.710938 38.210938 C 111.109375 38.183594 112.613281 39.503906 112.820312 41.824219 C 112.933594 43.097656 112.792969 43.699219 111.777344 46.335938 C 110.292969 50.207031 109.914062 52.539062 110.121094 56.582031 C 110.304688 60.257812 110.992188 62.863281 112.15625 64.304688 C 113.125 65.503906 114.292969 65.691406 117.761719 65.199219 C 120.851562 64.761719 122.210938 64.097656 125.320312 61.519531 C 127.519531 59.691406 129.105469 58.921875 130.015625 59.238281 C 131.207031 59.648438 131.730469 61.6875 131.015625 63.152344 C 129.996094 65.25 127.648438 66.546875 123.5625 67.273438 C 121.898438 67.570312 120.363281 67.988281 119.878906 68.277344 C 119.015625 68.792969 118.414062 69.882812 118.5 70.785156 C 118.570312 71.542969 118.167969 71.640625 115.882812 71.425781 C 114.757812 71.320312 113.25 71.285156 112.535156 71.355469 C 110.972656 71.503906 110.21875 72.15625 109.144531 74.285156 C 107.71875 77.109375 107.96875 77.003906 106.097656 75.554688 Z M 106.097656 75.554688 " fill-opacity="1" fill-rule="nonzero"/><path stroke-linecap="butt" transform="matrix(1.333397, -0.126513, 0.126513, 1.333397, 375.474529, -207.967707)" fill="none" stroke-linejoin="miter" d="M -213.213274 183.305778 C -214.326557 182.719703 -214.442103 182.424574 -214.441682 180.104412 C -214.440264 177.866371 -214.192603 176.058901 -213.77522 175.27237 L -213.52515 174.798073 L -213.31826 175.365529 C -212.50967 177.557382 -210.919411 179.322447 -207.413634 181.925475 C -207.038731 182.204198 -207.016584 182.279538 -207.260681 182.44387 C -208.651997 183.398724 -212.085749 183.896133 -213.213274 183.305778 Z M -213.213274 183.305778 " stroke="#000000" stroke-width="0.473" stroke-opacity="1" stroke-miterlimit="4"/><path fill="#155d90" d="M 114.367188 63.425781 C 112.808594 62.785156 112.617188 62.40625 112.324219 59.3125 C 112.042969 56.328125 112.144531 53.886719 112.601562 52.785156 L 112.875 52.121094 L 113.222656 52.851562 C 114.578125 55.671875 116.921875 57.824219 121.925781 60.851562 C 122.460938 61.175781 122.5 61.273438 122.195312 61.523438 C 120.460938 62.972656 115.945312 64.070312 114.367188 63.425781 Z M 114.367188 63.425781 " fill-opacity="1" fill-rule="nonzero"/><path stroke-linecap="butt" transform="matrix(1.333397, -0.126513, 0.126513, 1.333397, 375.474529, -207.967707)" fill="none" stroke-linejoin="miter" d="M -224.551421 177.416766 C -225.868153 176.998879 -226.200309 176.794521 -227.102325 175.865228 C -228.207645 174.732083 -229.926595 172.254646 -230.779939 170.565358 L -231.295569 169.546755 L -230.568042 169.659726 C -230.169575 169.720969 -229.163998 169.898405 -228.331799 170.050603 C -227.4996 170.202801 -225.396428 170.390632 -223.654552 170.465085 L -220.488924 170.601385 L -220.493148 171.942718 C -220.511292 175.74648 -221.323164 177.942779 -222.696583 177.906214 C -222.886682 177.902826 -223.721255 177.683023 -224.551421 177.416766 Z M -224.551421 177.416766 " stroke="#000000" stroke-width="0.473" stroke-opacity="1" stroke-miterlimit="4"/><path fill="#155d90" d="M 98.503906 57.007812 C 96.695312 56.617188 96.226562 56.386719 94.90625 55.261719 C 93.289062 53.890625 90.683594 50.804688 89.332031 48.660156 L 88.515625 47.367188 L 89.5 47.425781 C 90.039062 47.457031 91.402344 47.566406 92.53125 47.664062 C 93.660156 47.761719 96.488281 47.746094 98.820312 47.625 L 103.058594 47.40625 L 103.222656 49.195312 C 103.679688 54.269531 102.875 57.300781 101.039062 57.425781 C 100.785156 57.445312 99.644531 57.257812 98.503906 57.007812 Z M 98.503906 57.007812 " fill-opacity="1" fill-rule="nonzero"/><path stroke-linecap="butt" transform="matrix(1.333397, -0.126513, 0.126513, 1.333397, 375.474529, -207.967707)" fill="none" stroke-linejoin="miter" d="M -238.498997 183.09797 C -239.866823 182.848079 -241.087064 182.401263 -241.088953 182.143284 C -241.089251 182.084665 -240.556111 181.405791 -239.905904 180.635491 C -238.268296 178.690381 -237.375037 177.149234 -236.801263 175.270172 C -236.530047 174.387745 -236.24995 173.596976 -236.177811 173.515934 C -236.016811 173.332001 -233.409287 176.262869 -232.44515 177.710728 C -232.057973 178.292359 -231.598102 179.18849 -231.42137 179.703282 C -231.132949 180.55385 -231.128751 180.694867 -231.391939 181.214792 C -231.7709 181.966884 -232.549662 182.795296 -233.187857 183.130233 C -233.844299 183.472228 -236.508717 183.456721 -238.498997 183.09797 Z M -238.498997 183.09797 " stroke="#000000" stroke-width="0.473" stroke-opacity="1" stroke-miterlimit="4"/><path fill="#155d90" d="M 80.625 66.347656 C 78.769531 66.1875 77.085938 65.746094 77.050781 65.402344 C 77.042969 65.324219 77.667969 64.351562 78.4375 63.242188 C 80.375 60.441406 81.371094 58.273438 81.898438 55.695312 C 82.148438 54.484375 82.421875 53.394531 82.507812 53.277344 C 82.699219 53.011719 86.546875 56.589844 88.015625 58.398438 C 88.605469 59.125 89.332031 60.261719 89.632812 60.925781 C 90.125 62.023438 90.148438 62.210938 89.863281 62.9375 C 89.453125 63.988281 88.519531 65.191406 87.710938 65.71875 C 86.878906 66.257812 83.324219 66.574219 80.625 66.347656 Z M 80.625 66.347656 " fill-opacity="1" fill-rule="nonzero"/><path stroke-linecap="butt" transform="matrix(1.333397, -0.126513, 0.126513, 1.333397, 375.474529, -207.967707)" fill="none" stroke-linejoin="miter" d="M -103.902748 192.874467 C -104.748218 192.33724 -105.960649 190.912696 -105.961226 190.455632 C -105.961864 190.215348 -105.554328 190.119256 -103.692822 189.920893 C -102.206935 189.760131 -100.573128 189.18276 -99.157587 188.312231 C -98.482369 187.89585 -97.898892 187.643607 -97.862355 187.752538 C -97.768934 188.03385 -99.182801 190.8937 -99.888658 191.849141 C -100.53772 192.730873 -101.686361 193.412868 -102.515464 193.4133 C -102.811463 193.414511 -103.435762 193.170716 -103.902748 192.874467 Z M -103.902748 192.874467 " stroke="#000000" stroke-width="0.473" stroke-opacity="1" stroke-miterlimit="4"/><path fill="#155d90" d="M 261.332031 62.355469 C 260.136719 61.746094 258.339844 60 258.28125 59.390625 C 258.25 59.070312 258.78125 58.890625 261.238281 58.390625 C 263.199219 57.988281 265.304688 57.011719 267.082031 55.671875 C 267.929688 55.03125 268.675781 54.621094 268.738281 54.761719 C 268.898438 55.125 267.375 59.117188 266.554688 60.480469 C 265.800781 61.738281 264.355469 62.792969 263.25 62.898438 C 262.855469 62.9375 261.992188 62.691406 261.332031 62.355469 Z M 261.332031 62.355469 " fill-opacity="1" fill-rule="nonzero"/><path stroke-linecap="butt" transform="matrix(1.333397, -0.126513, 0.126513, 1.333397, 375.474529, -207.967707)" fill="none" stroke-linejoin="miter" d="M -90.053098 191.745279 C -90.55071 191.246915 -90.727043 190.295659 -90.605646 188.769164 C -90.515906 187.638084 -89.767616 185.092995 -89.531338 185.103695 C -89.472994 185.106301 -89.085013 185.6177 -88.669756 186.243009 C -87.67989 187.728463 -86.758674 188.609776 -85.232721 189.539677 C -84.546008 189.959308 -83.985794 190.384514 -83.986725 190.486959 C -83.988164 190.718257 -87.608321 191.883494 -88.788121 192.029355 C -89.508525 192.119199 -89.729333 192.068953 -90.053098 191.745279 Z M -90.053098 191.745279 " stroke="#000000" stroke-width="0.473" stroke-opacity="1" stroke-miterlimit="4"/><path fill="#155d90" d="M 279.65625 59.097656 C 278.929688 58.496094 278.574219 57.25 278.542969 55.199219 C 278.519531 53.679688 279.195312 50.191406 279.511719 50.175781 C 279.589844 50.171875 280.171875 50.804688 280.804688 51.585938 C 282.3125 53.441406 283.652344 54.5 285.804688 55.546875 C 286.773438 56.019531 287.574219 56.515625 287.585938 56.652344 C 287.613281 56.960938 282.933594 58.972656 281.378906 59.316406 C 280.429688 59.527344 280.128906 59.488281 279.65625 59.097656 Z M 279.65625 59.097656 " fill-opacity="1" fill-rule="nonzero"/><path stroke-linecap="butt" transform="matrix(1.333397, -0.126513, 0.126513, 1.333397, 375.474529, -207.967707)" fill="none" stroke-linejoin="miter" d="M -82.945191 206.279372 C -83.738955 205.351561 -84.583016 203.718815 -84.725313 202.841097 C -85.023069 201.008244 -83.765677 199.396183 -80.862348 197.881696 C -79.891852 197.379079 -79.067585 196.997346 -79.030242 197.036044 C -78.989997 197.075017 -79.321507 197.913639 -79.769511 198.899404 C -80.808081 201.200165 -81.298763 202.697481 -81.758601 205.012138 C -81.964372 206.038463 -82.167432 206.912709 -82.212763 206.958211 C -82.257818 207.000808 -82.586415 206.697183 -82.945191 206.279372 Z M -82.945191 206.279372 " stroke="#000000" stroke-width="0.473" stroke-opacity="1" stroke-miterlimit="4"/><path fill="#155d90" d="M 290.972656 77.578125 C 289.796875 76.441406 288.464844 74.371094 288.164062 73.21875 C 287.535156 70.8125 289.007812 68.503906 292.6875 66.117188 C 293.917969 65.324219 294.96875 64.710938 295.023438 64.757812 C 295.082031 64.804688 294.746094 65.964844 294.273438 67.335938 C 293.179688 70.535156 292.714844 72.59375 292.394531 75.738281 C 292.25 77.132812 292.089844 78.324219 292.035156 78.390625 C 291.980469 78.453125 291.503906 78.089844 290.972656 77.578125 Z M 290.972656 77.578125 " fill-opacity="1" fill-rule="nonzero"/><path stroke-linecap="butt" transform="matrix(1.333397, -0.126513, 0.126513, 1.333397, 375.474529, -207.967707)" fill="none" stroke-linejoin="miter" d="M -237.376777 262.633295 C -239.103362 261.625766 -240.447016 260.534459 -241.403309 259.374441 C -242.312299 258.271642 -242.921263 257.217817 -242.746848 257.046875 C -242.681893 256.979799 -241.843083 257.062315 -240.88023 257.226909 C -239.917653 257.394406 -238.486822 257.536023 -237.699744 257.546251 C -236.912666 257.556479 -236.055058 257.62613 -235.795255 257.697653 C -235.141393 257.876874 -234.485905 259.521023 -234.479298 260.995212 C -234.475622 262.006255 -234.531145 262.159183 -235.116992 262.745169 C -235.469826 263.098392 -235.831118 263.386363 -235.92195 263.386534 C -236.012782 263.386704 -236.66601 263.046419 -237.376777 262.633295 Z M -237.376777 262.633295 " stroke="#000000" stroke-width="0.473" stroke-opacity="1" stroke-miterlimit="4"/><path fill="#155d90" d="M 92.183594 172.257812 C 89.753906 171.132812 87.824219 169.847656 86.402344 168.421875 C 85.050781 167.066406 84.105469 165.738281 84.316406 165.488281 C 84.394531 165.390625 85.523438 165.394531 86.828125 165.492188 C 88.132812 165.59375 90.058594 165.601562 91.109375 165.515625 C 92.160156 165.429688 93.3125 165.414062 93.667969 165.476562 C 94.5625 165.632812 95.644531 167.742188 95.839844 169.707031 C 95.972656 171.054688 95.917969 171.265625 95.210938 172.121094 C 94.785156 172.636719 94.339844 173.066406 94.21875 173.078125 C 94.097656 173.089844 93.183594 172.71875 92.183594 172.257812 Z M 92.183594 172.257812 " fill-opacity="1" fill-rule="nonzero"/><path stroke-linecap="butt" transform="matrix(1.333397, -0.126513, 0.126513, 1.333397, 375.474529, -207.967707)" fill="none" stroke-linejoin="miter" d="M -247.41383 267.63968 C -249.480831 266.916245 -252.516115 265.529676 -252.813072 265.170462 C -252.952903 265.007788 -252.746573 264.778353 -252.072881 264.347179 C -251.024884 263.676141 -249.704356 262.324941 -249.049553 261.259192 L -248.616105 260.550353 L -248.044172 260.882926 C -246.311505 261.888101 -243.873083 264.378141 -243.615982 265.40444 C -243.360684 266.41885 -244.383088 268.302219 -245.188413 268.299049 C -245.375884 268.298839 -246.375974 268.001812 -247.41383 267.63968 Z M -247.41383 267.63968 " stroke="#000000" stroke-width="0.473" stroke-opacity="1" stroke-miterlimit="4"/><path fill="#155d90" d="M 79.433594 180.203125 C 76.585938 179.5 72.363281 178.035156 71.921875 177.59375 C 71.714844 177.394531 71.960938 177.0625 72.804688 176.402344 C 74.117188 175.375 75.707031 173.40625 76.445312 171.902344 L 76.933594 170.902344 L 77.738281 171.273438 C 80.175781 172.394531 83.742188 175.40625 84.214844 176.742188 C 84.683594 178.0625 83.558594 180.703125 82.484375 180.800781 C 82.234375 180.824219 80.863281 180.554688 79.433594 180.203125 Z M 79.433594 180.203125 " fill-opacity="1" fill-rule="nonzero"/><path stroke-linecap="butt" transform="matrix(1.333397, -0.126513, 0.126513, 1.333397, 375.474529, -207.967707)" fill="none" stroke-linejoin="miter" d="M -89.305008 384.217286 C -90.00961 383.646551 -90.069938 382.337178 -89.447965 381.092542 C -88.973956 380.141469 -88.05984 378.93627 -87.924438 379.083876 C -87.889724 379.119394 -87.553663 379.807499 -87.175533 380.607988 C -86.797404 381.408477 -86.187613 382.453592 -85.825636 382.930298 L -85.16365 383.795804 L -85.878585 384.105882 C -86.269505 384.27386 -87.100619 384.449875 -87.72606 384.495997 C -88.640442 384.561577 -88.948628 384.50597 -89.305008 384.217286 Z M -89.305008 384.217286 " stroke="#000000" stroke-width="0.473" stroke-opacity="1" stroke-miterlimit="4"/><path fill="#155d90" d="M 305.003906 315.644531 C 303.992188 314.972656 303.746094 313.234375 304.417969 311.496094 C 304.929688 310.167969 305.996094 308.445312 306.195312 308.625 C 306.246094 308.667969 306.78125 309.542969 307.386719 310.5625 C 307.992188 311.582031 308.9375 312.898438 309.480469 313.488281 L 310.472656 314.558594 L 309.558594 315.0625 C 309.058594 315.335938 307.972656 315.675781 307.144531 315.816406 C 305.933594 316.019531 305.515625 315.984375 305.003906 315.644531 Z M 305.003906 315.644531 " fill-opacity="1" fill-rule="nonzero"/><path stroke-linecap="butt" transform="matrix(1.333397, -0.126513, 0.126513, 1.333397, 375.474529, -207.967707)" fill="none" stroke-linejoin="miter" d="M -82.625566 393.633818 C -83.794971 392.682084 -84.319584 392.066906 -84.868826 391.00117 C -85.2847 390.1971 -85.144514 389.800264 -84.272034 389.311783 C -83.334451 388.785536 -81.232284 388.088548 -81.005499 388.230176 C -80.803467 388.354809 -80.761274 392.325421 -80.945086 393.67608 C -81.011414 394.159021 -81.163214 394.554755 -81.280452 394.55535 C -81.397415 394.553041 -82.002833 394.141124 -82.625566 393.633818 Z M -82.625566 393.633818 " stroke="#000000" stroke-width="0.473" stroke-opacity="1" stroke-miterlimit="4"/><path fill="#155d90" d="M 315.101562 327.355469 C 313.421875 326.234375 312.644531 325.480469 311.777344 324.128906 C 311.121094 323.109375 311.257812 322.5625 312.359375 321.800781 C 313.542969 320.980469 316.257812 319.785156 316.578125 319.945312 C 316.863281 320.085938 317.421875 325.375 317.347656 327.199219 C 317.320312 327.851562 317.167969 328.398438 317.011719 328.414062 C 316.855469 328.425781 315.996094 327.953125 315.101562 327.355469 Z M 315.101562 327.355469 " fill-opacity="1" fill-rule="nonzero"/><path stroke-linecap="butt" transform="matrix(1.333397, -0.126513, 0.126513, 1.333397, 375.474529, -207.967707)" fill="none" stroke-linejoin="miter" d="M -86.388448 401.675811 C -87.055139 400.798141 -88.007226 398.636616 -88.007868 397.994984 C -88.00785 397.655158 -87.813601 397.27517 -87.478314 396.952507 C -86.58882 396.099446 -86.060631 396.275532 -84.27489 398.01813 C -83.210663 399.059489 -82.83385 399.657715 -83.243908 399.656892 C -83.323127 399.658165 -83.877587 400.252988 -84.47085 400.978888 C -85.067291 401.707417 -85.633365 402.301138 -85.730279 402.303661 C -85.829822 402.303005 -86.125231 402.020106 -86.388448 401.675811 Z M -86.388448 401.675811 " stroke="#000000" stroke-width="0.473" stroke-opacity="1" stroke-miterlimit="4"/><path fill="#155d90" d="M 311.101562 338.554688 C 310.101562 337.46875 308.558594 334.707031 308.476562 333.851562 C 308.433594 333.398438 308.644531 332.867188 309.050781 332.394531 C 310.128906 331.144531 310.855469 331.3125 313.457031 333.410156 C 315.007812 334.664062 315.585938 335.414062 315.039062 335.464844 C 314.933594 335.476562 314.269531 336.339844 313.570312 337.382812 C 312.867188 338.429688 312.1875 339.292969 312.058594 339.308594 C 311.925781 339.320312 311.496094 338.980469 311.101562 338.554688 Z M 311.101562 338.554688 " fill-opacity="1" fill-rule="nonzero"/><path stroke-linecap="butt" transform="matrix(1.333397, -0.126513, 0.126513, 1.333397, 375.474529, -207.967707)" fill="none" stroke-linejoin="miter" d="M -195.368795 179.470804 C -195.806598 179.20662 -195.999688 178.956865 -196.415986 178.126389 C -196.756052 177.449622 -196.982864 176.845122 -197.09642 176.312889 C -197.159154 176.016911 -197.149341 176.006124 -196.043023 175.27617 C -194.667728 174.366668 -193.898608 173.639876 -193.755287 173.117367 C -193.615971 172.606196 -193.627274 171.922539 -193.789851 171.165937 C -193.951052 170.394819 -194.13575 170.025749 -194.610834 169.506086 C -195.019393 169.057186 -195.063285 168.871389 -194.785725 168.724881 C -194.548113 168.598018 -194.343877 168.699423 -193.955091 169.140589 C -192.730919 170.534022 -192.326485 173.774391 -193.037814 176.454817 C -193.318925 177.503289 -193.857102 178.791031 -194.231445 179.309198 C -194.5548 179.753104 -194.840139 179.796341 -195.368795 179.470804 Z M -195.368795 179.470804 " stroke="#000000" stroke-width="0.473" stroke-opacity="1" stroke-miterlimit="4"/><path fill="#155d90" d="M 137.675781 56.054688 C 137.058594 55.757812 136.769531 55.449219 136.109375 54.394531 C 135.570312 53.535156 135.191406 52.757812 134.972656 52.0625 C 134.851562 51.675781 134.863281 51.660156 136.246094 50.546875 C 137.964844 49.160156 138.898438 48.09375 139.023438 47.378906 C 139.144531 46.679688 139.042969 45.769531 138.730469 44.78125 C 138.417969 43.773438 138.125 43.304688 137.425781 42.671875 C 136.824219 42.125 136.742188 41.882812 137.09375 41.652344 C 137.394531 41.453125 137.679688 41.5625 138.253906 42.101562 C 140.0625 43.804688 141.011719 48.074219 140.402344 51.738281 C 140.160156 53.171875 139.605469 54.957031 139.171875 55.695312 C 138.796875 56.328125 138.421875 56.421875 137.675781 56.054688 Z M 137.675781 56.054688 " fill-opacity="1" fill-rule="nonzero"/><path stroke-linecap="butt" transform="matrix(1.333397, -0.126513, 0.126513, 1.333397, 375.474529, -207.967707)" fill="none" stroke-linejoin="miter" d="M -153.902595 160.68354 C -155.153734 160.438862 -156.903607 159.64591 -158.4896 158.607778 C -161.173575 156.853193 -162.165514 155.760102 -161.703307 155.056922 C -161.483605 154.717432 -160.616338 154.345639 -159.919838 154.291611 C -159.394215 154.247737 -159.305312 154.26789 -159.047669 154.485686 C -158.887662 154.620978 -158.551667 155.124515 -158.298769 155.608449 C -157.412661 157.292057 -155.935979 158.463365 -154.364088 158.723829 C -153.536318 158.860959 -152.907319 158.71557 -152.018818 158.181736 C -151.627644 157.949332 -151.226636 157.767664 -151.122665 157.783388 C -150.86246 157.819794 -150.527142 158.361351 -150.45203 158.866501 C -150.253864 160.174304 -151.949911 161.06802 -153.902595 160.68354 Z M -153.902595 160.68354 " stroke="#000000" stroke-width="0.473" stroke-opacity="1" stroke-miterlimit="4"/><path fill="#155d90" d="M 190.589844 25.757812 C 188.890625 25.589844 186.457031 24.753906 184.210938 23.570312 C 180.410156 21.570312 178.949219 20.238281 179.476562 19.242188 C 179.726562 18.761719 180.835938 18.15625 181.757812 17.996094 C 182.453125 17.871094 182.574219 17.886719 182.945312 18.144531 C 183.175781 18.304688 183.6875 18.933594 184.085938 19.546875 C 185.480469 21.679688 187.597656 23.054688 189.726562 23.203125 C 190.847656 23.28125 191.667969 23.007812 192.785156 22.183594 C 193.277344 21.824219 193.789062 21.53125 193.929688 21.539062 C 194.28125 21.554688 194.796875 22.234375 194.960938 22.898438 C 195.390625 24.617188 193.242188 26.023438 190.589844 25.757812 Z M 190.589844 25.757812 " fill-opacity="1" fill-rule="nonzero"/><path stroke-linecap="butt" transform="matrix(1.333397, -0.126513, 0.126513, 1.333397, 375.474529, -207.967707)" fill="none" stroke-linejoin="miter" d="M -154.673327 157.25901 C -155.06976 157.083707 -155.585129 156.803375 -155.823952 156.634238 C -156.923759 155.844374 -157.565893 154.429997 -157.004034 154.035085 C -156.727873 153.841571 -155.884529 153.845419 -155.223334 154.039983 C -154.254631 154.328173 -153.422725 154.823101 -152.650453 155.576029 L -151.910267 156.296618 L -152.177293 156.517364 C -152.918525 157.13548 -153.572444 157.574389 -153.753833 157.571827 C -153.865265 157.572972 -154.279521 157.431133 -154.673051 157.256106 Z M -154.673327 157.25901 " stroke="#000000" stroke-width="0.473" stroke-opacity="1" stroke-miterlimit="4"/><path fill="#155d90" d="M 189.128906 21.289062 C 188.578125 21.105469 187.855469 20.796875 187.515625 20.601562 C 185.949219 19.6875 184.914062 17.882812 185.613281 17.285156 C 185.957031 16.992188 187.082031 16.890625 187.988281 17.066406 C 189.316406 17.328125 190.488281 17.882812 191.613281 18.789062 L 192.691406 19.65625 L 192.363281 19.984375 C 191.453125 20.902344 190.636719 21.570312 190.394531 21.589844 C 190.246094 21.605469 189.675781 21.46875 189.128906 21.285156 Z M 189.128906 21.289062 " fill-opacity="1" fill-rule="nonzero"/><path stroke-linecap="butt" transform="matrix(1.333397, -0.126513, 0.126513, 1.333397, 375.474529, -207.967707)" fill="none" stroke-linejoin="miter" d="M -197.054844 173.867731 C -197.088902 173.73267 -197.093104 173.190304 -197.06647 172.662583 C -197.005362 171.493632 -196.73635 170.634432 -196.319365 170.284366 C -195.969137 169.989486 -195.945909 169.99169 -195.587452 170.28936 C -195.221386 170.59947 -195.073264 171.137913 -195.129798 171.949893 C -195.192392 172.825748 -195.478934 173.375682 -196.085996 173.783882 C -196.67744 174.181846 -196.969836 174.206835 -197.054568 173.864827 Z M -197.054844 173.867731 " stroke="#000000" stroke-width="0.473" stroke-opacity="1" stroke-miterlimit="4"/><path fill="#155d90" d="M 134.71875 48.796875 C 134.65625 48.621094 134.582031 47.898438 134.550781 47.191406 C 134.484375 45.625 134.734375 44.445312 135.246094 43.925781 C 135.675781 43.488281 135.707031 43.488281 136.222656 43.839844 C 136.75 44.207031 137.015625 44.90625 137.042969 45.996094 C 137.070312 47.171875 136.757812 47.941406 136 48.5625 C 135.261719 49.167969 134.875 49.238281 134.71875 48.792969 Z M 134.71875 48.796875 " fill-opacity="1" fill-rule="nonzero"/><path stroke-linecap="butt" transform="matrix(1.333397, -0.126513, 0.126513, 1.333397, 375.474529, -207.967707)" fill="none" stroke-linejoin="miter" d="M -149.310231 258.512104 C -149.420075 258.311262 -149.429869 257.982223 -149.45254 254.48512 C -149.482795 249.091881 -149.330656 242.640802 -149.125064 240.720947 C -148.816824 237.811856 -147.164064 233.761838 -142.949141 225.586962 C -139.879961 219.638227 -139.332374 218.374815 -138.301976 214.863376 C -138.019593 213.894122 -137.66831 213.063235 -137.571374 213.122234 C -137.427559 213.212048 -137.077458 214.894601 -136.807188 216.801014 C -136.470389 219.179538 -136.350489 220.447691 -136.341469 221.711182 C -136.332046 222.939557 -136.333148 222.95117 -136.521315 223.328806 C -136.768332 223.832688 -137.24792 224.255912 -138.337391 224.931803 C -140.335813 226.171813 -141.513991 227.381253 -142.252394 228.9576 C -142.722375 229.958857 -142.815259 230.412913 -142.814249 231.69908 C -142.8154 233.13152 -142.712123 233.52509 -141.950228 235.035787 L -141.407894 236.112586 L -142.200412 236.746342 C -143.477922 237.767656 -144.334884 238.740985 -144.610573 239.485299 C -144.945515 240.390975 -145.08024 242.150569 -144.894051 243.214084 C -144.832821 243.556791 -144.724014 243.953815 -144.652487 244.095361 C -144.378416 244.634036 -144.476918 244.838547 -145.328055 245.472601 C -145.79122 245.815356 -146.513946 246.763337 -146.853384 247.469378 C -147.641398 249.105467 -147.449927 250.638211 -146.272315 252.120971 C -145.720299 252.817847 -145.386381 253.312398 -145.386888 253.44125 C -145.388454 253.704761 -147.376514 256.873396 -148.229978 257.964239 C -148.856809 258.766052 -149.103131 258.892088 -149.310231 258.512104 Z M -149.310231 258.512104 " stroke="#000000" stroke-width="0.473" stroke-opacity="1" stroke-miterlimit="4"/><path fill="#155d90" d="M 209.089844 155.621094 C 208.917969 155.367188 208.863281 154.929688 208.390625 150.269531 C 207.667969 143.082031 207.054688 134.460938 207.085938 131.875 C 207.128906 127.957031 208.820312 122.347656 213.40625 110.914062 C 216.746094 102.59375 217.316406 100.839844 218.246094 96.027344 C 218.5 94.699219 218.863281 93.546875 219 93.613281 C 219.203125 93.714844 219.882812 95.914062 220.484375 98.421875 C 221.234375 101.550781 221.554688 103.226562 221.726562 104.910156 C 221.894531 106.546875 221.894531 106.5625 221.691406 107.089844 C 221.425781 107.792969 220.839844 108.417969 219.472656 109.457031 C 216.964844 111.363281 215.546875 113.125 214.761719 115.320312 C 214.261719 116.714844 214.195312 117.332031 214.359375 119.046875 C 214.539062 120.957031 214.726562 121.46875 215.933594 123.386719 L 216.792969 124.753906 L 215.816406 125.699219 C 214.242188 127.222656 213.222656 128.628906 212.949219 129.65625 C 212.617188 130.90625 212.660156 133.269531 213.042969 134.664062 C 213.167969 135.113281 213.363281 135.628906 213.476562 135.808594 C 213.910156 136.492188 213.804688 136.777344 212.75 137.730469 C 212.175781 138.246094 211.332031 139.601562 210.96875 140.585938 C 210.125 142.867188 210.574219 144.886719 212.332031 146.714844 C 213.15625 147.574219 213.664062 148.191406 213.679688 148.363281 C 213.710938 148.714844 211.460938 153.191406 210.460938 154.753906 C 209.726562 155.902344 209.414062 156.101562 209.089844 155.621094 Z M 209.089844 155.621094 " fill-opacity="1" fill-rule="nonzero"/><path stroke-linecap="butt" transform="matrix(1.333397, -0.126513, 0.126513, 1.333397, 375.474529, -207.967707)" fill="none" stroke-linejoin="miter" d="M -178.656887 258.619157 C -178.907791 258.299467 -179.026603 257.760875 -179.029113 256.922786 C -179.030245 256.07018 -179.082589 256.22048 -178.335494 254.984786 C -177.63731 253.832337 -176.74005 251.878503 -176.316208 250.591632 C -176.12673 250.014911 -176.102593 249.853147 -176.099654 249.17377 C -176.095806 248.330425 -176.196074 247.843396 -176.520945 247.129987 C -176.952079 246.177991 -177.59605 245.431377 -178.850503 244.418842 C -179.316133 244.046554 -179.721469 243.71807 -179.754106 243.691537 C -179.78384 243.66528 -179.57357 243.239939 -179.289634 242.748349 C -178.708772 241.751753 -178.411487 241.088586 -178.194566 240.31526 C -177.859309 239.128377 -177.76991 237.815632 -177.960188 236.918714 C -178.146312 236.039768 -178.895169 235.040049 -180.217821 233.91265 L -180.990198 233.253457 L -180.336982 232.389697 C -179.224017 230.91041 -178.745155 230.000811 -178.421258 228.7484 C -178.268146 228.153582 -178.253822 228.002604 -178.281784 227.124016 C -178.319519 225.977912 -178.439835 225.48605 -178.927534 224.481815 C -179.16246 223.993727 -179.372993 223.680797 -179.691926 223.337075 C -180.475707 222.489309 -181.607302 221.725724 -182.703799 221.302368 C -183.800296 220.879011 -183.903188 220.790151 -183.881937 220.288285 C -183.859986 219.809922 -183.633729 218.07366 -183.437284 216.867747 C -182.996651 214.199722 -182.771807 213.157629 -182.637148 213.158688 C -182.481889 213.158771 -181.67789 214.102201 -181.103282 214.962345 C -179.130607 217.915007 -177.679367 222.195082 -176.028646 229.930444 C -174.05207 239.202512 -174.252476 248.725037 -176.561531 255.091579 C -177.16538 256.762719 -178.152222 258.734419 -178.40272 258.780961 C -178.465345 258.792597 -178.578599 258.72033 -178.656887 258.619157 Z M -178.656887 258.619157 " stroke="#000000" stroke-width="0.473" stroke-opacity="1" stroke-miterlimit="4"/><path fill="#155d90" d="M 169.972656 159.476562 C 169.597656 159.082031 169.371094 158.378906 169.261719 157.261719 C 169.152344 156.125 169.101562 156.332031 169.941406 154.589844 C 170.726562 152.964844 171.675781 150.246094 172.078125 148.476562 C 172.257812 147.683594 172.269531 147.464844 172.1875 146.558594 C 172.085938 145.433594 171.890625 144.796875 171.367188 143.886719 C 170.671875 142.671875 169.71875 141.757812 167.917969 140.566406 C 167.25 140.128906 166.667969 139.742188 166.621094 139.710938 C 166.578125 139.679688 166.804688 139.085938 167.121094 138.394531 C 167.769531 136.992188 168.082031 136.070312 168.273438 135.011719 C 168.570312 133.386719 168.523438 131.625 168.15625 130.453125 C 167.796875 129.304688 166.671875 128.066406 164.765625 126.730469 L 163.652344 125.949219 L 164.414062 124.714844 C 165.710938 122.601562 166.234375 121.328125 166.507812 119.617188 C 166.636719 118.804688 166.636719 118.601562 166.488281 117.433594 C 166.292969 115.910156 166.070312 115.269531 165.292969 113.992188 C 164.917969 113.371094 164.597656 112.980469 164.128906 112.5625 C 162.976562 111.53125 161.371094 110.65625 159.855469 110.230469 C 158.339844 109.804688 158.191406 109.699219 158.15625 109.027344 C 158.125 108.386719 158.207031 106.042969 158.316406 104.410156 C 158.566406 100.796875 158.734375 99.378906 158.914062 99.363281 C 159.121094 99.34375 160.3125 100.5 161.1875 101.574219 C 164.191406 105.261719 166.667969 110.785156 169.847656 120.890625 C 173.65625 133.003906 174.59375 145.726562 172.320312 154.507812 C 171.726562 156.8125 170.660156 159.566406 170.332031 159.660156 C 170.25 159.683594 170.089844 159.601562 169.972656 159.476562 Z M 169.972656 159.476562 " fill-opacity="1" fill-rule="nonzero"/><path stroke-linecap="butt" transform="matrix(1.333397, -0.126513, 0.126513, 1.333397, 375.474529, -207.967707)" fill="none" stroke-linejoin="miter" d="M -183.632284 232.662949 C -183.997651 232.376341 -184.206639 231.738378 -184.369689 230.430977 C -184.518051 229.215785 -184.558142 227.66225 -184.480659 225.888436 C -184.379064 223.489987 -184.188296 222.652659 -183.685712 222.357587 C -183.49358 222.246916 -183.431506 222.241087 -183.154008 222.31136 C -182.149511 222.561933 -180.56152 224.165657 -180.15395 225.335133 C -180.064408 225.59557 -180.03251 225.876904 -180.03439 226.421621 C -180.043355 228.430441 -181.098008 230.993335 -182.371067 232.091239 C -182.709406 232.384318 -183.320474 232.803856 -183.411031 232.801123 C -183.434533 232.801823 -183.534098 232.739644 -183.632284 232.662949 Z M -183.632284 232.662949 " stroke="#000000" stroke-width="0.473" stroke-opacity="1" stroke-miterlimit="4"/><path fill="#155d90" d="M 160.054688 125.496094 C 159.53125 125.160156 159.171875 124.335938 158.789062 122.613281 C 158.4375 121.011719 158.1875 118.945312 158.066406 116.570312 C 157.898438 113.359375 158.046875 112.21875 158.679688 111.761719 C 158.921875 111.589844 159.003906 111.574219 159.382812 111.632812 C 160.753906 111.839844 163.074219 113.777344 163.765625 115.285156 C 163.917969 115.621094 163.996094 115.992188 164.0625 116.71875 C 164.304688 119.398438 163.222656 122.949219 161.664062 124.574219 C 161.25 125.007812 160.488281 125.644531 160.367188 125.652344 C 160.335938 125.65625 160.195312 125.585938 160.054688 125.496094 Z M 160.054688 125.496094 " fill-opacity="1" fill-rule="nonzero"/><path stroke-linecap="butt" transform="matrix(1.333397, -0.126513, 0.126513, 1.333397, 375.474529, -207.967707)" fill="none" stroke-linejoin="miter" d="M -182.134951 242.941253 C -182.414724 242.308292 -182.761965 240.502969 -183.099655 237.948588 C -183.512205 234.82463 -183.50492 234.31558 -183.038533 234.093242 C -182.829807 233.992934 -182.774366 233.995265 -182.209832 234.127926 C -181.369876 234.321873 -180.931947 234.553845 -180.47706 235.039366 C -179.171592 236.440512 -179.140732 238.863247 -180.402777 241.388887 C -180.923345 242.429287 -181.584742 243.224892 -181.93065 243.227226 C -181.974477 243.225998 -182.067705 243.097041 -182.134951 242.941253 Z M -182.134951 242.941253 " stroke="#000000" stroke-width="0.473" stroke-opacity="1" stroke-miterlimit="4"/><path fill="#155d90" d="M 163.351562 139.011719 C 162.898438 138.203125 162.207031 135.839844 161.433594 132.476562 C 160.488281 128.363281 160.433594 127.683594 161.027344 127.328125 C 161.292969 127.167969 161.367188 127.164062 162.136719 127.269531 C 163.28125 127.421875 163.894531 127.675781 164.5625 128.265625 C 166.480469 129.96875 166.828125 133.195312 165.464844 136.722656 C 164.902344 138.175781 164.121094 139.320312 163.660156 139.367188 C 163.601562 139.371094 163.460938 139.210938 163.351562 139.011719 Z M 163.351562 139.011719 " fill-opacity="1" fill-rule="nonzero"/><path stroke-linecap="butt" transform="matrix(1.333397, -0.126513, 0.126513, 1.333397, 375.474529, -207.967707)" fill="none" stroke-linejoin="miter" d="M -180.091882 253.365083 C -180.229658 253.149872 -180.283935 252.919147 -180.729665 250.577161 C -181.473614 246.654219 -181.602369 245.757279 -181.46907 245.433028 C -181.343506 245.12855 -180.87642 244.929715 -180.299765 244.934626 C -179.014699 244.94523 -177.781733 246.184231 -177.593463 247.658079 C -177.451354 248.784791 -177.830705 250.776046 -178.413303 251.94532 C -178.692512 252.510598 -179.030383 252.953127 -179.413651 253.25659 C -179.790286 253.551894 -179.954106 253.580294 -180.091882 253.365083 Z M -180.091882 253.365083 " stroke="#000000" stroke-width="0.473" stroke-opacity="1" stroke-miterlimit="4"/><path fill="#155d90" d="M 167.394531 152.652344 C 167.183594 152.382812 167.082031 152.082031 166.191406 149.015625 C 164.703125 143.878906 164.417969 142.699219 164.554688 142.25 C 164.683594 141.828125 165.28125 141.503906 166.050781 141.4375 C 167.765625 141.289062 169.566406 142.785156 170.003906 144.726562 C 170.335938 146.210938 170.082031 148.914062 169.453125 150.546875 C 169.152344 151.335938 168.757812 151.96875 168.285156 152.421875 C 167.820312 152.863281 167.605469 152.921875 167.394531 152.652344 Z M 167.394531 152.652344 " fill-opacity="1" fill-rule="nonzero"/><path stroke-linecap="butt" transform="matrix(1.333397, -0.126513, 0.126513, 1.333397, 375.474529, -207.967707)" fill="none" stroke-linejoin="miter" d="M -145.10767 251.733449 C -145.482678 251.548462 -145.960582 250.873265 -146.190043 250.204064 C -146.534648 249.204617 -146.172306 247.97929 -145.253123 247.029442 C -144.434964 246.18719 -143.521622 245.916443 -142.835884 246.315475 C -142.339313 246.608672 -142.307966 246.895812 -142.669314 247.801912 C -143.189095 249.111906 -143.678277 250.161144 -144.103566 250.876616 C -144.361668 251.312066 -144.766974 251.847802 -144.839835 251.843819 C -144.866241 251.844243 -144.984603 251.794928 -145.10767 251.733449 Z M -145.10767 251.733449 " stroke="#000000" stroke-width="0.473" stroke-opacity="1" stroke-miterlimit="4"/><path fill="#155d90" d="M 213.835938 146.050781 C 213.3125 145.851562 212.589844 145.011719 212.199219 144.148438 C 211.613281 142.859375 211.941406 141.179688 213.046875 139.796875 C 214.03125 138.570312 215.214844 138.09375 216.179688 138.539062 C 216.878906 138.867188 216.957031 139.246094 216.589844 140.5 C 216.0625 142.3125 215.542969 143.773438 215.066406 144.78125 C 214.777344 145.394531 214.304688 146.160156 214.207031 146.164062 C 214.171875 146.167969 214.007812 146.117188 213.835938 146.050781 Z M 213.835938 146.050781 " fill-opacity="1" fill-rule="nonzero"/><path stroke-linecap="butt" transform="matrix(1.333397, -0.126513, 0.126513, 1.333397, 375.474529, -207.967707)" fill="none" stroke-linejoin="miter" d="M -142.546005 244.649699 C -143.134383 244.336074 -143.778778 243.563053 -144.05817 242.833453 C -144.351676 242.067359 -144.171105 240.936109 -143.60033 239.953203 C -143.463406 239.714254 -143.108114 239.273377 -142.813326 238.976167 C -142.388627 238.544805 -142.161951 238.378821 -141.691559 238.145144 C -141.172233 237.889745 -141.0398 237.852508 -140.539333 237.826753 C -139.791399 237.786395 -139.745346 237.825919 -139.792685 238.448351 C -139.814023 238.704126 -139.995106 239.56288 -140.198888 240.352101 C -140.853718 242.900198 -141.36945 244.321899 -141.755621 244.625086 C -141.964601 244.78982 -142.270137 244.798915 -142.546005 244.649699 Z M -142.546005 244.649699 " stroke="#000000" stroke-width="0.473" stroke-opacity="1" stroke-miterlimit="4"/><path fill="#155d90" d="M 216.355469 136.28125 C 215.53125 135.9375 214.574219 134.988281 214.109375 134.050781 C 213.621094 133.066406 213.71875 131.535156 214.355469 130.152344 C 214.507812 129.816406 214.925781 129.183594 215.28125 128.75 C 215.792969 128.121094 216.074219 127.871094 216.671875 127.5 C 217.332031 127.09375 217.503906 127.027344 218.167969 126.929688 C 219.160156 126.78125 219.226562 126.828125 219.242188 127.664062 C 219.246094 128.007812 219.113281 129.175781 218.941406 130.253906 C 218.390625 133.734375 217.882812 135.695312 217.40625 136.148438 C 217.148438 136.394531 216.742188 136.445312 216.355469 136.28125 Z M 216.355469 136.28125 " fill-opacity="1" fill-rule="nonzero"/><path stroke-linecap="butt" transform="matrix(1.333397, -0.126513, 0.126513, 1.333397, 375.474529, -207.967707)" fill="none" stroke-linejoin="miter" d="M -140.074371 235.149319 C -140.755129 234.759548 -141.304962 233.977923 -141.549303 233.064157 C -141.698675 232.508018 -141.700869 231.388722 -141.555366 230.781463 C -141.361546 229.97372 -140.890524 229.17763 -140.022923 228.184804 C -138.90256 226.905428 -137.296265 225.938745 -136.9903 226.357405 C -136.728736 226.719121 -137.06356 228.735107 -137.877523 231.663595 C -138.657514 234.481054 -139.05275 235.342925 -139.565255 235.341171 C -139.661894 235.340791 -139.89101 235.254602 -140.074371 235.149319 Z M -140.074371 235.149319 " stroke="#000000" stroke-width="0.473" stroke-opacity="1" stroke-miterlimit="4"/><path fill="#155d90" d="M 218.449219 123.300781 C 217.492188 122.867188 216.660156 121.894531 216.21875 120.707031 C 215.949219 119.984375 215.804688 118.492188 215.921875 117.664062 C 216.078125 116.5625 216.605469 115.441406 217.636719 114.007812 C 218.96875 112.160156 220.988281 110.667969 221.449219 111.1875 C 221.84375 111.636719 221.652344 114.367188 220.9375 118.375 C 220.253906 122.230469 219.835938 123.429688 219.152344 123.492188 C 219.023438 123.503906 218.707031 123.417969 218.449219 123.300781 Z M 218.449219 123.300781 " fill-opacity="1" fill-rule="nonzero"/></svg>